<svg xmlns="http://www.w3.org/2000/svg" xmlns:xlink="http://www.w3.org/1999/xlink" width="500" zoomAndPan="magnify" viewBox="0 0 375 374.999991" height="500" preserveAspectRatio="xMidYMid meet" version="1.0"><path fill="#5f50e6" d="M 213.210938 279.570312 C 206.832031 279.570312 201.664062 284.742188 201.664062 291.121094 C 201.664062 297.5 206.832031 302.671875 213.210938 302.671875 C 219.589844 302.671875 224.761719 297.5 224.761719 291.121094 C 224.761719 284.742188 219.589844 279.570312 213.210938 279.570312 " fill-opacity="1" fill-rule="nonzero"/><path fill="#5f50e6" d="M 240.90625 270.921875 C 236.125 270.921875 232.253906 274.796875 232.253906 279.570312 C 232.253906 284.347656 236.125 288.222656 240.90625 288.222656 C 245.683594 288.222656 249.554688 284.347656 249.554688 279.570312 C 249.554688 274.796875 245.683594 270.921875 240.90625 270.921875 " fill-opacity="1" fill-rule="nonzero"/><path fill="#5f50e6" d="M 155.804688 188.179688 C 153.84375 211.917969 152.257812 213.507812 128.519531 215.464844 C 152.257812 217.425781 153.84375 219.011719 155.804688 242.753906 C 157.761719 219.011719 159.351562 217.425781 183.089844 215.464844 C 159.351562 213.507812 157.761719 211.917969 155.804688 188.179688 " fill-opacity="1" fill-rule="nonzero"/><path fill="#5f50e6" d="M 224.761719 249.46875 C 220.867188 249.46875 217.707031 252.628906 217.707031 256.523438 C 217.707031 260.421875 220.867188 263.582031 224.761719 263.582031 C 228.65625 263.582031 231.820312 260.421875 231.820312 256.523438 C 231.820312 252.628906 228.65625 249.46875 224.761719 249.46875 " fill-opacity="1" fill-rule="nonzero"/><path fill="#5f50e6" d="M 254.074219 143.070312 C 248.878906 158.089844 247.589844 158.851562 231.921875 156.1875 C 246.941406 161.382812 247.703125 162.671875 245.039062 178.339844 C 250.234375 163.320312 251.523438 162.558594 267.191406 165.222656 C 252.171875 160.027344 251.410156 158.738281 254.074219 143.070312 " fill-opacity="1" fill-rule="nonzero"/><path fill="#5f50e6" d="M 257.28125 183.242188 C 249.660156 210.929688 222.734375 235.355469 181.667969 250.726562 C 150.472656 262.40625 130.007812 281.3125 117.339844 297.300781 C 128.363281 227.800781 117.714844 183.242188 117.714844 183.242188 L 73.808594 188.980469 L 63.195312 155.890625 C 93.164062 120.925781 146.332031 112.742188 146.332031 112.742188 C 146.707031 115.261719 147.304688 117.703125 148.109375 120.050781 L 180.613281 99.050781 C 182.707031 97.691406 185.105469 97.015625 187.5 97.015625 C 200.421875 97.015625 210.875 86.253906 210.371094 73.222656 C 209.910156 61.34375 200.28125 51.71875 188.40625 51.257812 C 176.695312 50.804688 166.820312 59.199219 164.933594 70.28125 C 164.558594 72.492188 162.675781 74.128906 160.433594 74.128906 L 160.421875 74.128906 C 157.625 74.128906 155.460938 71.628906 155.917969 68.871094 C 158.425781 53.691406 171.613281 42.113281 187.5 42.117188 C 205.164062 42.117188 219.511719 56.464844 219.511719 74.128906 C 219.511719 91.808594 205.179688 106.140625 187.5 106.140625 C 186.8125 106.140625 186.144531 106.335938 185.566406 106.710938 L 152.039062 128.375 C 159.363281 140.265625 172.507812 148.199219 187.5 148.199219 C 202.492188 148.199219 215.632812 140.265625 222.964844 128.375 L 195.332031 110.519531 C 199.09375 109.710938 202.644531 108.335938 205.890625 106.480469 L 226.890625 120.050781 C 227.695312 117.703125 228.292969 115.261719 228.667969 112.742188 C 228.667969 112.742188 281.839844 120.925781 311.808594 155.890625 L 301.191406 188.980469 Z M 187.5 309.46875 L 118.667969 309.46875 C 130.226562 292.78125 150.742188 271.195312 184.585938 258.523438 C 227.523438 242.453125 245.886719 223.085938 253.722656 208.953125 C 251.910156 230.914062 251.554688 265.855469 259.765625 309.46875 Z M 187.5 36.105469 C 103.886719 36.105469 36.105469 103.890625 36.105469 187.5 C 36.105469 271.109375 103.886719 338.894531 187.5 338.894531 C 271.109375 338.894531 338.894531 271.109375 338.894531 187.5 C 338.894531 103.890625 271.109375 36.105469 187.5 36.105469 " fill-opacity="1" fill-rule="nonzero"/><path fill="#5f50e6" d="M 187.5 356.664062 C 94.074219 356.664062 18.339844 280.921875 18.339844 187.5 C 18.339844 94.078125 94.074219 18.335938 187.5 18.335938 C 280.921875 18.335938 356.664062 94.078125 356.664062 187.5 C 356.664062 280.921875 280.921875 356.664062 187.5 356.664062 Z M 187.5 0 C 83.945312 0 0 83.949219 0 187.5 C 0 291.050781 83.945312 375 187.5 375 C 291.050781 375 375 291.050781 375 187.5 C 375 83.949219 291.050781 0 187.5 0 " fill-opacity="1" fill-rule="nonzero"/></svg>