<svg xmlns="http://www.w3.org/2000/svg" xmlns:xlink="http://www.w3.org/1999/xlink" width="450" zoomAndPan="magnify" viewBox="0 0 337.5 149.999998" height="200" preserveAspectRatio="xMidYMid meet" version="1.0"><defs><g/><clipPath id="2eda8c9e70"><path d="M 5.546875 15.671875 L 124.796875 15.671875 L 124.796875 134.921875 L 5.546875 134.921875 Z M 5.546875 15.671875 " clip-rule="nonzero"/></clipPath></defs><path fill="#5f50e6" d="M 73.347656 104.574219 C 71.316406 104.574219 69.675781 106.21875 69.675781 108.246094 C 69.675781 110.277344 71.316406 111.921875 73.347656 111.921875 C 75.375 111.921875 77.019531 110.277344 77.019531 108.246094 C 77.019531 106.21875 75.375 104.574219 73.347656 104.574219 " fill-opacity="1" fill-rule="nonzero"/><path fill="#5f50e6" d="M 82.152344 101.824219 C 80.632812 101.824219 79.402344 103.058594 79.402344 104.574219 C 79.402344 106.09375 80.632812 107.324219 82.152344 107.324219 C 83.671875 107.324219 84.902344 106.09375 84.902344 104.574219 C 84.902344 103.058594 83.671875 101.824219 82.152344 101.824219 " fill-opacity="1" fill-rule="nonzero"/><path fill="#5f50e6" d="M 55.089844 75.511719 C 54.46875 83.0625 53.964844 83.566406 46.414062 84.1875 C 53.964844 84.8125 54.46875 85.316406 55.089844 92.867188 C 55.714844 85.316406 56.21875 84.8125 63.769531 84.1875 C 56.21875 83.566406 55.714844 83.0625 55.089844 75.511719 " fill-opacity="1" fill-rule="nonzero"/><path fill="#5f50e6" d="M 77.019531 95.003906 C 75.78125 95.003906 74.777344 96.007812 74.777344 97.246094 C 74.777344 98.484375 75.78125 99.492188 77.019531 99.492188 C 78.257812 99.492188 79.265625 98.484375 79.265625 97.246094 C 79.265625 96.007812 78.257812 95.003906 77.019531 95.003906 " fill-opacity="1" fill-rule="nonzero"/><path fill="#5f50e6" d="M 86.339844 61.167969 C 84.6875 65.945312 84.28125 66.1875 79.296875 65.339844 C 84.074219 66.992188 84.316406 67.402344 83.46875 72.382812 C 85.121094 67.605469 85.53125 67.363281 90.511719 68.210938 C 85.738281 66.558594 85.496094 66.148438 86.339844 61.167969 " fill-opacity="1" fill-rule="nonzero"/><path fill="#5f50e6" d="M 87.359375 73.941406 C 84.9375 82.746094 76.375 90.515625 63.316406 95.402344 C 53.394531 99.117188 46.886719 105.128906 42.859375 110.214844 C 46.367188 88.113281 42.980469 73.941406 42.980469 73.941406 L 29.015625 75.765625 L 25.640625 65.246094 C 35.171875 54.125 52.078125 51.523438 52.078125 51.523438 C 52.199219 52.324219 52.386719 53.101562 52.644531 53.847656 L 62.980469 47.167969 C 63.648438 46.738281 64.410156 46.523438 65.171875 46.523438 C 69.28125 46.523438 72.605469 43.101562 72.445312 38.957031 C 72.296875 35.179688 69.234375 32.117188 65.457031 31.972656 C 61.734375 31.828125 58.59375 34.496094 57.996094 38.019531 C 57.875 38.722656 57.277344 39.246094 56.5625 39.246094 L 56.558594 39.246094 C 55.671875 39.246094 54.980469 38.449219 55.128906 37.574219 C 55.925781 32.746094 60.117188 29.0625 65.171875 29.066406 C 70.789062 29.066406 75.351562 33.628906 75.351562 39.246094 C 75.351562 44.867188 70.792969 49.425781 65.171875 49.425781 C 64.953125 49.425781 64.738281 49.484375 64.554688 49.605469 L 53.894531 56.496094 C 56.222656 60.277344 60.402344 62.796875 65.171875 62.796875 C 69.9375 62.796875 74.117188 60.277344 76.449219 56.496094 L 67.660156 50.816406 C 68.859375 50.558594 69.988281 50.121094 71.019531 49.53125 L 77.695312 53.847656 C 77.953125 53.101562 78.144531 52.324219 78.261719 51.523438 C 78.261719 51.523438 95.171875 54.125 104.699219 65.246094 L 101.324219 75.765625 Z M 65.171875 114.082031 L 43.28125 114.082031 C 46.957031 108.777344 53.480469 101.910156 64.242188 97.882812 C 77.898438 92.769531 83.738281 86.613281 86.230469 82.117188 C 85.652344 89.101562 85.539062 100.214844 88.152344 114.082031 Z M 65.171875 27.152344 C 38.582031 27.152344 17.027344 48.707031 17.027344 75.296875 C 17.027344 101.882812 38.582031 123.441406 65.171875 123.441406 C 91.757812 123.441406 113.3125 101.882812 113.3125 75.296875 C 113.3125 48.707031 91.757812 27.152344 65.171875 27.152344 " fill-opacity="1" fill-rule="nonzero"/><g clip-path="url(#2eda8c9e70)"><path fill="#5f50e6" d="M 65.171875 129.089844 C 35.460938 129.089844 11.378906 105.003906 11.378906 75.296875 C 11.378906 45.589844 35.460938 21.503906 65.171875 21.503906 C 94.878906 21.503906 118.964844 45.589844 118.964844 75.296875 C 118.964844 105.003906 94.878906 129.089844 65.171875 129.089844 Z M 65.171875 15.671875 C 32.242188 15.671875 5.546875 42.367188 5.546875 75.296875 C 5.546875 108.226562 32.242188 134.921875 65.171875 134.921875 C 98.101562 134.921875 124.796875 108.226562 124.796875 75.296875 C 124.796875 42.367188 98.101562 15.671875 65.171875 15.671875 " fill-opacity="1" fill-rule="nonzero"/></g><g fill="#5f50e6" fill-opacity="1"><g transform="translate(144.513836, 85.995227)"><g><path d="M 35.703125 0 L 32.8125 -9.15625 L 15.5625 -9.15625 L 12.8125 0 L 0.5625 0 L 16.0625 -48.453125 L 32.671875 -48.453125 L 48.171875 0 Z M 24.296875 -37.609375 L 23.9375 -37.609375 L 18.375 -19.078125 L 29.921875 -19.078125 Z M 24.296875 -37.609375 "/></g></g></g><g fill="#5f50e6" fill-opacity="1"><g transform="translate(199.2242, 85.995227)"><g><path d="M 15.0625 0 L 0.703125 -48.453125 L 13.234375 -48.453125 L 23.09375 -13.59375 L 23.65625 -13.59375 L 33.453125 -48.453125 L 45.78125 -48.453125 L 31.34375 0 Z M 15.0625 0 "/></g></g></g><g fill="#5f50e6" fill-opacity="1"><g transform="translate(251.68141, 85.995227)"><g><path d="M 5 0 L 5 -48.453125 L 17.25 -48.453125 L 17.25 0 Z M 5 0 "/></g></g></g><g fill="#5f50e6" fill-opacity="1"><g transform="translate(279.917313, 85.995227)"><g><path d="M 14.5 0 L 14.5 -38.03125 L 1.125 -38.03125 L 1.125 -48.453125 L 40.203125 -48.453125 L 40.203125 -38.03125 L 26.765625 -38.03125 L 26.765625 0 Z M 14.5 0 "/></g></g></g><g fill="#5f50e6" fill-opacity="1"><g transform="translate(142.90442, 113.284738)"><g><path d="M 2.8125 0 L 2.8125 -19.375 L 5.234375 -19.375 L 5.234375 -2.34375 L 14.28125 -2.34375 L 14.28125 0 Z M 2.8125 0 "/></g></g></g><g fill="#5f50e6" fill-opacity="1"><g transform="translate(165.947353, 113.284738)"><g><path d="M 15.96875 0 L 13.96875 -5.15625 L 5.234375 -5.15625 L 3.234375 0 L 0.78125 0 L 8.109375 -19.375 L 11.15625 -19.375 L 18.484375 0 Z M 9.65625 -16.765625 L 9.515625 -16.765625 L 5.96875 -7.4375 L 13.21875 -7.4375 Z M 9.65625 -16.765625 "/></g></g></g><g fill="#5f50e6" fill-opacity="1"><g transform="translate(193.103088, 113.284738)"><g><path d="M 17.375 -19.375 L 17.375 -8.484375 C 17.375 -5.960938 17.210938 -4.113281 16.890625 -2.9375 C 16.578125 -1.769531 15.910156 -0.953125 14.890625 -0.484375 C 13.878906 -0.015625 12.25 0.21875 10 0.21875 C 7.75 0.21875 6.113281 -0.0195312 5.09375 -0.5 C 4.082031 -0.976562 3.410156 -1.796875 3.078125 -2.953125 C 2.753906 -4.117188 2.59375 -5.960938 2.59375 -8.484375 L 2.59375 -19.375 L 4.984375 -19.375 L 4.984375 -7.546875 C 4.984375 -5.859375 5.078125 -4.65625 5.265625 -3.9375 C 5.453125 -3.226562 5.882812 -2.734375 6.5625 -2.453125 C 7.238281 -2.171875 8.382812 -2.03125 10 -2.03125 C 11.613281 -2.03125 12.753906 -2.171875 13.421875 -2.453125 C 14.085938 -2.734375 14.507812 -3.222656 14.6875 -3.921875 C 14.863281 -4.628906 14.953125 -5.835938 14.953125 -7.546875 L 14.953125 -19.375 Z M 17.375 -19.375 "/></g></g></g><g fill="#5f50e6" fill-opacity="1"><g transform="translate(220.963071, 113.284738)"><g><path d="M 15.5 0 L 5.265625 -14.8125 L 5.15625 -14.8125 L 5.15625 0 L 2.8125 0 L 2.8125 -19.375 L 5.296875 -19.375 L 15.375 -4.90625 L 15.5 -4.90625 L 15.5 -19.375 L 17.796875 -19.375 L 17.796875 0 Z M 15.5 0 "/></g></g></g><g fill="#5f50e6" fill-opacity="1"><g transform="translate(249.470954, 113.284738)"><g><path d="M 2.8125 -19.375 L 8.984375 -19.375 C 11.671875 -19.375 13.566406 -19.132812 14.671875 -18.65625 C 15.785156 -18.1875 16.488281 -17.332031 16.78125 -16.09375 C 17.082031 -14.851562 17.234375 -12.71875 17.234375 -9.6875 C 17.234375 -6.664062 17.082031 -4.535156 16.78125 -3.296875 C 16.488281 -2.054688 15.785156 -1.195312 14.671875 -0.71875 C 13.566406 -0.238281 11.671875 0 8.984375 0 L 2.8125 0 Z M 8.59375 -2.25 C 10.789062 -2.25 12.269531 -2.363281 13.03125 -2.59375 C 13.789062 -2.832031 14.28125 -3.414062 14.5 -4.34375 C 14.726562 -5.28125 14.84375 -7.0625 14.84375 -9.6875 C 14.84375 -12.300781 14.722656 -14.078125 14.484375 -15.015625 C 14.253906 -15.953125 13.757812 -16.535156 13 -16.765625 C 12.238281 -17.003906 10.769531 -17.125 8.59375 -17.125 L 5.234375 -17.125 L 5.234375 -2.25 Z M 8.59375 -2.25 "/></g></g></g><g fill="#5f50e6" fill-opacity="1"><g transform="translate(276.767535, 113.284738)"><g><path d="M 14.8125 0 L 11.796875 -7.609375 L 5.234375 -7.609375 L 5.234375 0 L 2.8125 0 L 2.8125 -19.375 L 11.71875 -19.375 C 13.257812 -19.375 14.421875 -19.128906 15.203125 -18.640625 C 15.992188 -18.160156 16.507812 -17.503906 16.75 -16.671875 C 17 -15.847656 17.125 -14.789062 17.125 -13.5 C 17.125 -12.164062 16.925781 -11.003906 16.53125 -10.015625 C 16.132812 -9.023438 15.328125 -8.351562 14.109375 -8 L 17.40625 0 Z M 10.703125 -9.859375 C 11.910156 -9.859375 12.800781 -9.984375 13.375 -10.234375 C 13.945312 -10.492188 14.3125 -10.863281 14.46875 -11.34375 C 14.625 -11.832031 14.703125 -12.550781 14.703125 -13.5 C 14.703125 -14.457031 14.625 -15.175781 14.46875 -15.65625 C 14.320312 -16.144531 13.984375 -16.507812 13.453125 -16.75 C 12.921875 -17 12.070312 -17.125 10.90625 -17.125 L 5.234375 -17.125 L 5.234375 -9.859375 Z M 10.703125 -9.859375 "/></g></g></g><g fill="#5f50e6" fill-opacity="1"><g transform="translate(303.866942, 113.284738)"><g><path d="M 7.359375 0 L 7.359375 -7.328125 L 0.34375 -19.375 L 2.9375 -19.375 L 8.53125 -9.9375 L 8.734375 -9.9375 L 14.3125 -19.375 L 16.84375 -19.375 L 9.78125 -7.328125 L 9.78125 0 Z M 7.359375 0 "/></g></g></g></svg>