<svg xmlns="http://www.w3.org/2000/svg" xmlns:xlink="http://www.w3.org/1999/xlink"
    zoomAndPan="magnify" viewBox="0 0 562.5 187.499995"
    preserveAspectRatio="xMidYMid meet" version="1.0">
    <defs>
        <g />
        <clipPath id="761789d1e3">
            <path d="M 0.5 0 L 187.492188 0 L 187.492188 186.992188 L 0.5 186.992188 Z M 0.5 0 "
                clip-rule="nonzero" />
        </clipPath>
    </defs>
    <g fill="#5f50e6" fill-opacity="1">
        <g transform="translate(212.632883, 156.267015)">
            <g>
                <path
                    d="M 3.5625 -43.65625 L 18.28125 -43.65625 L 18.28125 -11.421875 L 37.984375 -11.421875 L 37.984375 0 L 3.5625 0 Z M 3.5625 -43.65625 " />
            </g>
        </g>
    </g>
    <g fill="#5f50e6" fill-opacity="1">
        <g transform="translate(251.122481, 156.267015)">
            <g>
                <path
                    d="M 24.703125 -44.65625 C 28.941406 -44.65625 32.679688 -43.8125 35.921875 -42.125 C 39.171875 -40.445312 41.695312 -37.992188 43.5 -34.765625 C 45.3125 -31.546875 46.21875 -27.710938 46.21875 -23.265625 L 46.21875 0 L 31.5 0 L 31.5 -8.796875 L 17.65625 -8.796875 L 17.65625 0 L 3.1875 0 L 3.1875 -23.265625 C 3.1875 -27.710938 4.085938 -31.546875 5.890625 -34.765625 C 7.703125 -37.992188 10.226562 -40.445312 13.46875 -42.125 C 16.71875 -43.8125 20.460938 -44.65625 24.703125 -44.65625 Z M 31.5 -19.890625 L 31.5 -24.515625 C 31.5 -27.210938 30.863281 -29.257812 29.59375 -30.65625 C 28.320312 -32.050781 26.648438 -32.75 24.578125 -32.75 C 22.492188 -32.75 20.816406 -32.050781 19.546875 -30.65625 C 18.285156 -29.257812 17.65625 -27.210938 17.65625 -24.515625 L 17.65625 -19.890625 Z M 31.5 -19.890625 " />
            </g>
        </g>
    </g>
    <g fill="#5f50e6" fill-opacity="1">
        <g transform="translate(300.528912, 156.267015)">
            <g>
                <path
                    d="M 45.71875 -43.65625 L 45.71875 0 L 31.4375 0 L 31.4375 -4.671875 C 28.488281 -0.890625 24.457031 1 19.34375 1 C 14.226562 1 10.253906 -0.679688 7.421875 -4.046875 C 4.597656 -7.421875 3.1875 -12.207031 3.1875 -18.40625 L 3.1875 -43.65625 L 17.90625 -43.65625 L 17.90625 -18.84375 C 17.90625 -16.175781 18.460938 -14.1875 19.578125 -12.875 C 20.703125 -11.570312 22.265625 -10.921875 24.265625 -10.921875 C 26.222656 -10.921875 27.832031 -11.632812 29.09375 -13.0625 C 30.363281 -14.5 31 -16.59375 31 -19.34375 L 31 -43.65625 Z M 45.71875 -43.65625 " />
            </g>
        </g>
    </g>
    <g fill="#5f50e6" fill-opacity="1">
        <g transform="translate(349.810569, 156.267015)">
            <g>
                <path
                    d="M 30.0625 -44.65625 C 35.21875 -44.65625 39.21875 -42.972656 42.0625 -39.609375 C 44.914062 -36.242188 46.34375 -31.460938 46.34375 -25.265625 L 46.34375 0 L 31.625 0 L 31.625 -24.828125 C 31.625 -27.484375 31.050781 -29.46875 29.90625 -30.78125 C 28.757812 -32.09375 27.171875 -32.75 25.140625 -32.75 C 23.097656 -32.75 21.441406 -32.039062 20.171875 -30.625 C 18.910156 -29.207031 18.28125 -27.109375 18.28125 -24.328125 L 18.28125 0 L 3.5625 0 L 3.5625 -43.65625 L 17.84375 -43.65625 L 17.84375 -38.984375 C 20.789062 -42.765625 24.863281 -44.65625 30.0625 -44.65625 Z M 30.0625 -44.65625 " />
            </g>
        </g>
    </g>
    <g fill="#5f50e6" fill-opacity="1">
        <g transform="translate(399.341754, 156.267015)">
            <g>
                <path
                    d="M 3.5625 -43.65625 L 25.078125 -43.65625 C 29.941406 -43.65625 34.234375 -42.769531 37.953125 -41 C 41.671875 -39.238281 44.5625 -36.710938 46.625 -33.421875 C 48.6875 -30.140625 49.71875 -26.273438 49.71875 -21.828125 C 49.71875 -17.378906 48.6875 -13.507812 46.625 -10.21875 C 44.5625 -6.9375 41.671875 -4.410156 37.953125 -2.640625 C 34.234375 -0.878906 29.941406 0 25.078125 0 L 3.5625 0 Z M 24.453125 -11.484375 C 27.609375 -11.484375 30.132812 -12.382812 32.03125 -14.1875 C 33.925781 -16 34.875 -18.546875 34.875 -21.828125 C 34.875 -25.117188 33.925781 -27.664062 32.03125 -29.46875 C 30.132812 -31.28125 27.609375 -32.1875 24.453125 -32.1875 L 18.28125 -32.1875 L 18.28125 -11.484375 Z M 24.453125 -11.484375 " />
            </g>
        </g>
    </g>
    <g fill="#5f50e6" fill-opacity="1">
        <g transform="translate(450.86917, 156.267015)">
            <g>
                <path
                    d="M 22.265625 -10.984375 L 18.28125 -10.984375 L 18.28125 0 L 3.5625 0 L 3.5625 -43.65625 L 24.578125 -43.65625 C 28.609375 -43.65625 32.117188 -42.988281 35.109375 -41.65625 C 38.109375 -40.332031 40.414062 -38.421875 42.03125 -35.921875 C 43.65625 -33.429688 44.46875 -30.523438 44.46875 -27.203125 C 44.46875 -24.078125 43.757812 -21.347656 42.34375 -19.015625 C 40.9375 -16.691406 38.898438 -14.84375 36.234375 -13.46875 L 45.40625 0 L 29.6875 0 Z M 29.625 -27.203125 C 29.625 -28.816406 29.125 -30.070312 28.125 -30.96875 C 27.132812 -31.863281 25.640625 -32.3125 23.640625 -32.3125 L 18.28125 -32.3125 L 18.28125 -22.078125 L 23.640625 -22.078125 C 25.640625 -22.078125 27.132812 -22.523438 28.125 -23.421875 C 29.125 -24.316406 29.625 -25.578125 29.625 -27.203125 Z M 29.625 -27.203125 " />
            </g>
        </g>
    </g>
    <g fill="#5f50e6" fill-opacity="1">
        <g transform="translate(497.343645, 156.267015)">
            <g>
                <path
                    d="M 45.65625 -43.65625 L 45.65625 -14.40625 C 45.65625 -9.914062 44.738281 -6.066406 42.90625 -2.859375 C 41.082031 0.335938 38.484375 2.753906 35.109375 4.390625 C 31.742188 6.035156 27.773438 6.859375 23.203125 6.859375 C 19.253906 6.859375 15.664062 6.390625 12.4375 5.453125 C 9.21875 4.515625 6.421875 3.21875 4.046875 1.5625 L 9.421875 -8.859375 C 11.453125 -7.566406 13.601562 -6.578125 15.875 -5.890625 C 18.144531 -5.203125 20.359375 -4.859375 22.515625 -4.859375 C 25.515625 -4.859375 27.664062 -5.554688 28.96875 -6.953125 C 30.28125 -8.347656 30.9375 -10.5625 30.9375 -13.59375 L 30.9375 -14.84375 C 28.15625 -11.6875 24.429688 -10.109375 19.765625 -10.109375 C 14.285156 -10.109375 10.097656 -11.65625 7.203125 -14.75 C 4.316406 -17.851562 2.875 -22.351562 2.875 -28.25 L 2.875 -43.65625 L 17.59375 -43.65625 L 17.59375 -29.3125 C 17.59375 -26.863281 18.117188 -25.035156 19.171875 -23.828125 C 20.234375 -22.617188 21.867188 -22.015625 24.078125 -22.015625 C 26.160156 -22.015625 27.820312 -22.628906 29.0625 -23.859375 C 30.3125 -25.085938 30.9375 -27.070312 30.9375 -29.8125 L 30.9375 -43.65625 Z M 45.65625 -43.65625 " />
            </g>
        </g>
    </g>
    <g fill="#5f50e6" fill-opacity="1">
        <g transform="translate(210.746392, 91.666469)">
            <g>
                <path
                    d="M 38.421875 -69.46875 C 45.023438 -69.46875 50.847656 -68.15625 55.890625 -65.53125 C 60.929688 -62.914062 64.859375 -59.101562 67.671875 -54.09375 C 70.492188 -49.082031 71.90625 -43.113281 71.90625 -36.1875 L 71.90625 0 L 49 0 L 49 -13.6875 L 27.453125 -13.6875 L 27.453125 0 L 4.953125 0 L 4.953125 -36.1875 C 4.953125 -43.113281 6.359375 -49.082031 9.171875 -54.09375 C 11.984375 -59.101562 15.910156 -62.914062 20.953125 -65.53125 C 26.003906 -68.15625 31.828125 -69.46875 38.421875 -69.46875 Z M 49 -30.953125 L 49 -38.140625 C 49 -42.335938 48.007812 -45.519531 46.03125 -47.6875 C 44.0625 -49.851562 41.460938 -50.9375 38.234375 -50.9375 C 34.992188 -50.9375 32.382812 -49.851562 30.40625 -47.6875 C 28.4375 -45.519531 27.453125 -42.335938 27.453125 -38.140625 L 27.453125 -30.953125 Z M 49 -30.953125 " />
            </g>
        </g>
    </g>
    <g fill="#5f50e6" fill-opacity="1">
        <g transform="translate(287.589948, 91.666469)">
            <g>
                <path
                    d="M 78.109375 -67.921875 L 49.390625 0 L 26.875 0 L -1.84375 -67.921875 L 22.796875 -67.921875 L 39 -28.234375 L 55.59375 -67.921875 Z M 78.109375 -67.921875 " />
            </g>
        </g>
    </g>
    <g fill="#5f50e6" fill-opacity="1">
        <g transform="translate(363.851356, 91.666469)">
            <g>
                <path
                    d="M 36.484375 -50.65625 L 36.484375 -17.265625 L 46.671875 -17.265625 L 46.671875 0 L 3.390625 0 L 3.390625 -17.265625 L 13.578125 -17.265625 L 13.578125 -50.65625 L 3.390625 -50.65625 L 3.390625 -67.921875 L 46.671875 -67.921875 L 46.671875 -50.65625 Z M 36.484375 -50.65625 " />
            </g>
        </g>
    </g>
    <g fill="#5f50e6" fill-opacity="1">
        <g transform="translate(413.916104, 91.666469)">
            <g>
                <path
                    d="M 60.546875 -44.15625 C 55.304688 -47.0625 50.003906 -49.066406 44.640625 -50.171875 L 44.640625 0 L 21.734375 0 L 21.734375 -50.171875 C 16.367188 -49.066406 11.066406 -47.0625 5.828125 -44.15625 L -1.75 -60.453125 C 3.101562 -63.359375 8.535156 -65.585938 14.546875 -67.140625 C 20.566406 -68.691406 26.78125 -69.46875 33.1875 -69.46875 C 39.59375 -69.46875 45.800781 -68.691406 51.8125 -67.140625 C 57.832031 -65.585938 63.265625 -63.359375 68.109375 -60.453125 Z M 60.546875 -44.15625 " />
            </g>
        </g>
    </g>
    <g clip-path="url(#761789d1e3)">
        <path fill="#5f50e6"
            d="M 25.367188 0.222656 C 15.269531 1.421875 6.257812 8.300781 2.667969 17.578125 C 0.574219 22.925781 0.6875 18.625 0.6875 93.496094 C 0.6875 168.332031 0.574219 164.066406 2.628906 169.414062 C 5.734375 177.382812 13.589844 184.148438 22.078125 186.132812 C 24.84375 186.769531 28.398438 186.804688 93.996094 186.804688 C 171.972656 186.804688 165.613281 187.066406 172.082031 183.8125 C 179.339844 180.1875 184.722656 173.265625 186.78125 164.925781 C 187.566406 161.859375 187.566406 25.132812 186.78125 22.066406 C 184.199219 11.554688 177.058594 4.152344 166.398438 0.785156 C 164.679688 0.261719 157.273438 0.1875 95.492188 0.148438 C 57.53125 0.113281 26.003906 0.148438 25.367188 0.222656 Z M 161.875 14.25 C 166.511719 15.109375 170.214844 17.988281 172.269531 22.363281 L 173.46875 24.871094 L 173.578125 39.34375 L 173.691406 53.855469 L 129.824219 53.855469 L 126.046875 51.496094 C 122.269531 49.140625 116.136719 46.261719 112.507812 45.101562 C 100.390625 41.289062 87 41.363281 74.921875 45.328125 C 70.285156 46.859375 63.289062 50.300781 59.8125 52.808594 L 58.355469 53.855469 L 14.296875 53.855469 L 14.410156 39.34375 L 14.523438 24.871094 L 15.683594 22.4375 C 17.703125 18.175781 21.144531 15.332031 25.554688 14.359375 C 28.359375 13.726562 158.542969 13.613281 161.875 14.25 Z M 102.261719 54.414062 C 109.328125 55.574219 117.480469 59.089844 123.203125 63.351562 C 126.980469 66.195312 132.027344 71.429688 134.3125 74.796875 C 135.992188 77.304688 136.144531 77.789062 135.433594 77.789062 C 134.609375 77.789062 130.421875 79.882812 127.953125 81.527344 L 125.597656 83.097656 L 125.035156 82.238281 C 117.667969 70.980469 104.019531 64.476562 90.667969 65.785156 C 76.902344 67.167969 65.984375 74.835938 60.1875 87.175781 C 57.570312 92.75 56.785156 96.375 56.859375 102.847656 C 56.894531 107.410156 57.046875 108.867188 57.867188 112.007812 C 59.625 118.664062 62.917969 124.5 67.667969 129.25 C 82.925781 144.507812 108.242188 143.460938 122.34375 127.042969 C 123.390625 125.769531 124.289062 124.613281 124.289062 124.460938 C 124.289062 123.828125 125.109375 124.238281 127.054688 125.808594 C 128.175781 126.707031 130.234375 128.089844 131.65625 128.875 C 133.039062 129.625 134.273438 130.332031 134.347656 130.410156 C 134.757812 130.746094 131.28125 135.007812 128.066406 138.074219 C 120.398438 145.441406 111.945312 149.632812 101.101562 151.5 C 97.882812 152.0625 89.320312 151.949219 85.65625 151.277344 C 65.308594 147.6875 49.152344 131.53125 45.5625 111.148438 C 44.816406 106.921875 44.816406 98.730469 45.5625 94.507812 C 47.359375 84.371094 52.445312 74.796875 59.8125 67.691406 C 63.925781 63.765625 67.253906 61.371094 71.890625 59.015625 C 81.390625 54.226562 91.675781 52.695312 102.261719 54.414062 Z M 43.65625 69.074219 C 30.714844 88.296875 30.007812 113.691406 41.824219 133.699219 C 45.453125 139.832031 51.511719 146.714844 56.859375 150.828125 C 80.980469 169.304688 115.3125 167.207031 136.59375 145.890625 C 157.347656 125.171875 160.527344 93.121094 144.257812 69 L 141.863281 65.449219 L 173.652344 65.449219 L 173.652344 112.308594 C 173.652344 144.507812 173.542969 159.878906 173.242188 161.375 C 172.382812 166.011719 169.464844 169.714844 165.050781 171.808594 L 162.621094 172.96875 L 25.367188 172.96875 L 22.9375 171.808594 C 18.523438 169.714844 15.609375 166.011719 14.746094 161.375 C 14.449219 159.878906 14.335938 144.507812 14.335938 112.308594 L 14.335938 65.449219 L 46.125 65.449219 Z M 141.640625 90.765625 C 143.660156 99.292969 143.511719 108.417969 141.265625 116.234375 C 140.742188 118.03125 140.183594 119.636719 139.996094 119.824219 C 139.398438 120.421875 134.945312 117.65625 132.105469 114.8125 C 129 111.710938 127.503906 109.128906 126.90625 105.726562 C 125.671875 99.179688 130.234375 92.410156 138.125 89.15625 C 139.246094 88.671875 140.371094 88.296875 140.59375 88.261719 C 140.855469 88.261719 141.304688 89.382812 141.640625 90.765625 Z M 141.640625 90.765625 "
            fill-opacity="1" fill-rule="nonzero" />
    </g>
    <path fill="#5f50e6"
        d="M 28.921875 26.292969 C 28.433594 26.554688 27.613281 27.339844 27.164062 28.011719 C 26.378906 29.207031 26.304688 29.65625 26.304688 35.042969 C 26.304688 41.4375 26.601562 42.558594 28.546875 43.570312 C 30.191406 44.429688 64.300781 44.429688 65.945312 43.570312 C 67.890625 42.558594 68.191406 41.4375 68.191406 35.15625 C 68.191406 28.835938 67.890625 27.785156 65.832031 26.554688 C 64.675781 25.84375 63.851562 25.804688 47.246094 25.804688 C 34.082031 25.804688 29.632812 25.917969 28.921875 26.292969 Z M 28.921875 26.292969 "
        fill-opacity="1" fill-rule="nonzero" />
    <path fill="#5f50e6"
        d="M 150.09375 26.140625 C 145.867188 27.449219 143.359375 30.703125 143.359375 34.96875 C 143.359375 38.855469 145.082031 41.660156 148.410156 43.234375 C 154.28125 46 160.789062 42.371094 161.574219 35.941406 C 162.285156 29.804688 155.890625 24.382812 150.09375 26.140625 Z M 150.09375 26.140625 "
        fill-opacity="1" fill-rule="nonzero" />
</svg>