<svg xmlns="http://www.w3.org/2000/svg" version="1.1" xmlns:xlink="http://www.w3.org/1999/xlink" xmlns:svgjs="http://svgjs.dev/svgjs" width="500" height="500"><svg xmlns="http://www.w3.org/2000/svg" xmlns:xlink="http://www.w3.org/1999/xlink" width="500" zoomAndPan="magnify" viewBox="0 0 375 374.999991" height="500" preserveAspectRatio="xMidYMid meet" version="1.0"><path fill="#5f50e6" d="M 49.875 0.449219 C 29.625 2.851562 11.550781 16.648438 4.351562 35.25 C 0.148438 45.976562 0.375 37.351562 0.375 187.5 C 0.375 337.574219 0.148438 329.023438 4.273438 339.75 C 10.5 355.726562 26.25 369.300781 43.273438 373.273438 C 48.824219 374.550781 55.949219 374.625 187.5 374.625 C 343.875 374.625 331.125 375.148438 344.101562 368.625 C 358.648438 361.351562 369.449219 347.476562 373.574219 330.75 C 375.148438 324.601562 375.148438 50.398438 373.574219 44.25 C 368.398438 23.175781 354.074219 8.324219 332.699219 1.574219 C 329.25 0.523438 314.398438 0.375 190.5 0.300781 C 114.375 0.226562 51.148438 0.300781 49.875 0.449219 Z M 323.625 28.574219 C 332.925781 30.300781 340.351562 36.074219 344.476562 44.851562 L 346.875 49.875 L 347.101562 78.898438 L 347.324219 108 L 259.351562 108 L 251.773438 103.273438 C 244.199219 98.550781 231.898438 92.773438 224.625 90.449219 C 200.324219 82.800781 173.476562 82.949219 149.25 90.898438 C 139.949219 93.976562 125.925781 100.875 118.949219 105.898438 L 116.023438 108 L 27.675781 108 L 27.898438 78.898438 L 28.125 49.875 L 30.449219 45 C 34.5 36.449219 41.398438 30.75 50.25 28.800781 C 55.875 27.523438 316.949219 27.300781 323.625 28.574219 Z M 204.074219 109.125 C 218.25 111.449219 234.601562 118.5 246.074219 127.050781 C 253.648438 132.75 263.773438 143.25 268.351562 150 C 271.726562 155.023438 272.023438 156 270.601562 156 C 268.949219 156 260.550781 160.199219 255.601562 163.5 L 250.875 166.648438 L 249.75 164.925781 C 234.976562 142.351562 207.601562 129.300781 180.824219 131.925781 C 153.226562 134.699219 131.324219 150.074219 119.699219 174.824219 C 114.449219 186 112.875 193.273438 113.023438 206.25 C 113.101562 215.398438 113.398438 218.324219 115.050781 224.625 C 118.574219 237.976562 125.175781 249.675781 134.699219 259.199219 C 165.300781 289.800781 216.074219 287.699219 244.351562 254.773438 C 246.449219 252.226562 248.25 249.898438 248.25 249.601562 C 248.25 248.324219 249.898438 249.148438 253.800781 252.300781 C 256.050781 254.101562 260.175781 256.875 263.023438 258.449219 C 265.800781 259.949219 268.273438 261.375 268.425781 261.523438 C 269.25 262.199219 262.273438 270.75 255.824219 276.898438 C 240.449219 291.675781 223.5 300.074219 201.75 303.824219 C 195.300781 304.949219 178.125 304.726562 170.773438 303.375 C 129.976562 296.175781 97.574219 263.773438 90.375 222.898438 C 88.875 214.425781 88.875 198 90.375 189.523438 C 93.976562 169.199219 104.175781 150 118.949219 135.75 C 127.199219 127.875 133.875 123.074219 143.175781 118.351562 C 162.226562 108.75 182.851562 105.675781 204.074219 109.125 Z M 86.550781 138.523438 C 60.601562 177.074219 59.175781 228 82.875 268.125 C 90.148438 280.425781 102.300781 294.226562 113.023438 302.476562 C 161.398438 339.523438 230.25 335.324219 272.925781 292.574219 C 314.550781 251.023438 320.925781 186.75 288.300781 138.375 L 283.5 131.25 L 347.25 131.25 L 347.25 225.226562 C 347.25 289.800781 347.023438 320.625 346.425781 323.625 C 344.699219 332.925781 338.851562 340.351562 330 344.550781 L 325.125 346.875 L 49.875 346.875 L 45 344.550781 C 36.148438 340.351562 30.300781 332.925781 28.574219 323.625 C 27.976562 320.625 27.75 289.800781 27.75 225.226562 L 27.75 131.25 L 91.5 131.25 Z M 283.050781 182.023438 C 287.101562 199.125 286.800781 217.425781 282.300781 233.101562 C 281.25 236.699219 280.125 239.925781 279.75 240.300781 C 278.550781 241.5 269.625 235.949219 263.925781 230.25 C 257.699219 224.023438 254.699219 218.851562 253.5 212.023438 C 251.023438 198.898438 260.175781 185.324219 276 178.800781 C 278.25 177.824219 280.5 177.074219 280.949219 177 C 281.476562 177 282.375 179.25 283.050781 182.023438 Z M 283.050781 182.023438 " fill-opacity="1" fill-rule="nonzero"></path><path fill="#5f50e6" d="M 57 52.726562 C 56.023438 53.25 54.375 54.824219 53.476562 56.175781 C 51.898438 58.574219 51.75 59.476562 51.75 70.273438 C 51.75 83.101562 52.351562 85.351562 56.25 87.375 C 59.550781 89.101562 127.949219 89.101562 131.25 87.375 C 135.148438 85.351562 135.75 83.101562 135.75 70.5 C 135.75 57.824219 135.148438 55.726562 131.023438 53.25 C 128.699219 51.824219 127.050781 51.75 93.75 51.75 C 67.351562 51.75 58.425781 51.976562 57 52.726562 Z M 57 52.726562 " fill-opacity="1" fill-rule="nonzero"></path><path fill="#5f50e6" d="M 300 52.425781 C 291.523438 55.050781 286.5 61.574219 286.5 70.125 C 286.5 77.925781 289.949219 83.550781 296.625 86.699219 C 308.398438 92.25 321.449219 84.976562 323.023438 72.074219 C 324.449219 59.773438 311.625 48.898438 300 52.425781 Z M 300 52.425781 " fill-opacity="1" fill-rule="nonzero"></path></svg><style>@media (prefers-color-scheme: light) { :root { filter: none; } }
@media (prefers-color-scheme: dark) { :root { filter: none; } }
</style></svg>