<?xml version="1.0" standalone="no"?>
<!DOCTYPE svg PUBLIC "-//W3C//DTD SVG 20010904//EN"
 "http://www.w3.org/TR/2001/REC-SVG-20010904/DTD/svg10.dtd">
<svg version="1.0" xmlns="http://www.w3.org/2000/svg"
 width="700.000000pt" height="700.000000pt" viewBox="0 0 700.000000 700.000000"
 preserveAspectRatio="xMidYMid meet">
<metadata>
Created by potrace 1.14, written by Peter Selinger 2001-2017
</metadata>
<g transform="translate(0.000000,700.000000) scale(0.100000,-0.100000)"
fill="#000000" stroke="none">
<path d="M3278 6996 c-1 -2 -39 -6 -83 -10 -477 -37 -997 -199 -1423 -443 -88
-50 -303 -188 -341 -219 -9 -7 -52 -41 -96 -75 -425 -331 -812 -824 -1020
-1299 -25 -58 -52 -118 -59 -135 -51 -115 -148 -423 -171 -546 -3 -13 -11 -58
-20 -99 -29 -147 -36 -199 -52 -370 -15 -164 -8 -592 12 -711 2 -13 6 -46 9
-74 12 -105 35 -222 72 -370 26 -104 82 -289 94 -315 5 -8 25 -60 45 -115 62
-165 251 -535 312 -610 4 -6 29 -42 54 -80 169 -257 437 -544 723 -773 89 -72
367 -262 382 -262 4 0 15 -6 23 -14 26 -22 298 -158 411 -205 267 -111 589
-200 859 -237 25 -3 57 -8 71 -10 163 -25 682 -25 842 1 13 2 46 7 73 10 72
10 86 12 120 19 17 3 44 8 60 11 343 65 740 212 1039 384 49 28 91 51 93 51
10 0 268 180 353 247 152 119 324 280 450 422 36 41 70 79 76 85 65 68 263
353 352 508 46 79 172 331 172 342 0 3 11 29 24 58 57 127 151 421 182 573 16
77 54 301 60 350 4 33 9 76 11 95 8 71 10 517 3 595 -17 172 -22 220 -25 225
-2 3 -6 30 -10 60 -3 30 -10 71 -15 90 -5 19 -12 51 -15 70 -13 75 -67 275
-106 392 -152 453 -407 888 -725 1237 -75 82 -255 258 -314 306 -25 21 -64 54
-88 74 -210 176 -557 382 -847 503 -236 98 -574 195 -785 223 -19 3 -46 7 -60
10 -13 2 -54 7 -90 11 -36 3 -78 8 -95 11 -33 5 -531 13 -537 9z m507 -350
c22 -3 65 -8 95 -11 30 -3 66 -7 80 -10 49 -9 85 -15 120 -21 67 -10 276 -63
375 -94 625 -199 1198 -607 1578 -1125 20 -27 40 -54 45 -60 14 -18 99 -149
142 -220 44 -72 166 -313 190 -375 7 -19 19 -51 27 -70 53 -130 140 -423 157
-525 37 -223 41 -251 53 -373 14 -148 7 -545 -11 -639 -3 -11 -7 -44 -11 -73
-4 -29 -9 -62 -11 -74 -2 -12 -8 -46 -14 -76 -15 -83 -16 -87 -44 -197 -104
-407 -320 -837 -593 -1178 -79 -99 -303 -333 -393 -411 -318 -274 -706 -492
-1099 -619 -108 -34 -320 -89 -386 -98 -16 -3 -59 -10 -95 -16 -160 -26 -280
-35 -485 -35 -249 -1 -413 16 -680 69 -207 41 -497 143 -720 253 -452 222
-817 529 -1158 972 -16 21 -95 140 -149 225 -57 90 -185 346 -227 455 -55 139
-120 339 -136 418 -2 9 -9 40 -15 67 -6 28 -14 59 -16 70 -63 293 -77 737 -33
1050 72 516 276 1023 577 1435 249 340 592 651 957 866 315 185 777 351 1080
389 28 4 57 8 65 10 16 5 101 14 220 24 86 8 455 6 515 -3z"/>
<path d="M3357 6324 c-1 -1 -42 -5 -92 -8 -49 -4 -101 -9 -115 -11 -14 -2 -45
-7 -70 -10 -262 -34 -626 -152 -884 -288 -278 -147 -468 -288 -691 -511 -172
-172 -261 -282 -378 -463 -180 -277 -335 -652 -393 -948 -2 -11 -6 -31 -9 -45
-11 -55 -16 -87 -21 -130 -2 -25 -7 -56 -9 -70 -25 -125 -24 -493 0 -685 57
-438 209 -850 444 -1205 123 -186 202 -282 365 -445 197 -196 335 -305 558
-437 313 -185 685 -317 1028 -364 25 -3 53 -8 63 -10 120 -22 575 -22 695 1 9
1 40 6 67 9 366 48 792 210 1129 430 327 214 643 534 846 858 64 103 176 317
218 416 62 147 149 440 167 557 3 22 7 47 10 55 2 8 6 35 9 60 3 25 8 54 10
65 10 51 19 213 20 340 0 165 -9 299 -29 427 -4 24 -9 57 -11 73 -56 357 -213
749 -429 1075 -119 178 -199 275 -364 440 -317 316 -666 534 -1085 677 -99 34
-302 88 -371 99 -21 3 -47 7 -58 10 -12 2 -39 6 -62 9 -22 3 -51 8 -65 10 -74
13 -482 29 -493 19z m234 -118 c214 -26 415 -202 480 -421 23 -75 32 -218 17
-270 -5 -16 -11 -43 -13 -58 -9 -46 -59 -148 -100 -202 -102 -136 -292 -235
-448 -235 -31 0 -56 -8 -88 -28 -75 -49 -179 -116 -286 -186 -57 -36 -149 -96
-205 -132 -57 -37 -105 -68 -107 -70 -8 -7 73 -105 134 -162 297 -278 763
-275 1058 6 57 55 133 149 126 156 -6 5 -308 201 -416 271 l-92 59 47 16 c26
9 69 26 95 38 57 25 38 33 230 -92 78 -50 158 -102 178 -114 l37 -22 17 69 17
68 86 -19 c140 -30 327 -86 472 -140 147 -54 388 -168 460 -217 25 -17 50 -31
56 -31 6 0 19 -9 29 -20 10 -11 22 -20 27 -20 10 0 125 -84 198 -144 89 -74
221 -211 217 -226 -3 -8 -28 -87 -56 -175 -29 -88 -67 -211 -87 -273 -19 -62
-39 -123 -45 -135 l-10 -23 -97 13 c-53 7 -122 15 -152 18 -30 3 -66 8 -80 10
-14 3 -65 10 -115 15 -49 6 -117 15 -150 20 -33 5 -80 12 -105 15 -25 2 -61 7
-80 10 l-35 6 -24 -68 c-143 -414 -502 -772 -1041 -1040 -80 -40 -230 -107
-335 -148 -351 -141 -560 -260 -804 -458 -92 -75 -302 -281 -365 -360 -21 -26
-40 -46 -42 -45 -1 2 6 57 16 123 10 66 21 154 25 195 4 41 9 83 10 92 2 9 7
59 10 110 4 51 8 103 10 116 6 36 18 395 18 512 0 124 -12 438 -17 466 -2 10
-7 62 -11 114 -3 52 -8 97 -10 100 -1 3 -6 31 -9 63 -4 32 -14 95 -22 140 -7
45 -14 83 -14 84 0 2 -16 1 -35 -2 -75 -11 -103 -14 -190 -25 -49 -6 -101 -13
-115 -15 -14 -2 -47 -6 -75 -10 -27 -3 -61 -7 -75 -9 -14 -3 -50 -7 -80 -10
-30 -4 -66 -8 -80 -10 -14 -3 -47 -7 -75 -11 -27 -3 -57 -8 -65 -10 -8 -3 -20
-1 -25 3 -12 8 -11 5 -110 317 -42 132 -80 250 -86 263 -6 15 -6 30 0 41 14
25 197 199 267 253 142 109 407 262 564 327 30 12 64 26 75 31 31 15 218 81
240 86 11 2 31 8 45 13 20 8 92 29 120 36 3 0 23 5 45 10 44 9 47 10 90 23 17
5 45 8 64 8 34 -1 35 -2 49 -64 l14 -63 36 23 c20 12 134 85 252 162 384 248
357 235 500 250 93 10 169 46 242 113 216 203 161 562 -106 691 -165 80 -355
49 -485 -79 -54 -55 -108 -150 -117 -211 -14 -82 -96 -117 -149 -63 -29 28
-31 49 -10 128 41 159 146 288 305 374 48 27 84 38 193 62 30 7 96 5 168 -3z
m1146 -3131 c-22 -56 -24 -882 -2 -994 2 -11 7 -60 10 -108 4 -48 8 -99 11
-113 2 -14 6 -54 10 -90 3 -36 8 -74 10 -84 2 -11 6 -42 9 -70 3 -28 7 -62 10
-76 3 -14 7 -38 9 -55 6 -36 37 -224 41 -246 3 -14 -122 -15 -1311 -15 -723 0
-1314 1 -1314 3 0 9 90 126 162 210 180 210 425 413 668 551 103 59 263 133
434 202 363 145 592 266 815 432 127 95 302 272 375 381 57 83 75 104 63 72z"/>
<path d="M4723 4273 c-18 -52 -63 -141 -80 -160 -34 -38 -81 -52 -161 -48 -40
2 -83 7 -95 11 -37 11 -6 -12 33 -25 62 -20 139 -70 155 -101 18 -34 22 -109
13 -200 l-7 -65 22 66 c49 145 105 190 228 185 41 -2 88 -7 104 -10 17 -4 1 6
-35 21 -83 36 -137 69 -156 98 -19 30 -27 118 -16 188 9 57 7 73 -5 40z"/>
<path d="M2900 3419 c-1 -47 -10 -121 -26 -196 -29 -144 -116 -207 -312 -228
-31 -4 -72 -8 -91 -10 -52 -6 -49 -15 5 -16 27 0 58 -2 69 -4 11 -2 49 -9 85
-15 165 -28 231 -101 256 -286 4 -33 9 -62 10 -66 1 -5 2 -21 3 -38 2 -43 17
-37 19 7 6 147 48 272 110 323 48 40 203 79 320 80 12 0 22 4 22 8 0 4 -10 8
-22 8 -88 2 -234 31 -286 58 -34 18 -75 62 -95 101 -19 38 -33 108 -52 261 -7
49 -15 57 -15 13z"/>
<path d="M4124 2320 c-84 -54 -73 -188 18 -225 47 -18 68 -19 105 -3 36 16 59
44 74 86 15 46 -11 116 -55 143 -40 25 -103 24 -142 -1z"/>
<path d="M4451 1936 c-18 -5 -48 -25 -67 -44 -104 -107 -27 -276 123 -268 91
5 147 66 147 162 0 41 -5 59 -27 88 -15 19 -36 40 -46 46 -36 19 -96 26 -130
16z"/>
<path d="M3902 1767 c-47 -17 -108 -81 -125 -130 -50 -152 75 -305 232 -283
163 22 240 211 140 346 -49 66 -164 97 -247 67z"/>
</g>
</svg>
